<svg xmlns="http://www.w3.org/2000/svg" width="26.99" height="24" viewBox="0 0 26.99 24"><defs><style>.a{opacity:0.8;}</style></defs><g class="a" transform="translate(-5.016 -962.362)"><path d="M5.916,962.362a.9.9,0,1,0,0,1.8H8.785l3.094,14.6c.122.549.483,1.007.937,1h15a.9.9,0,1,0,0-1.8H13.547l-.384-1.8H29.016a.928.928,0,0,0,.872-.7l2.1-9a.942.942,0,0,0-.872-1.1H10.885l-.487-2.288a.929.929,0,0,0-.881-.712Zm5.344,4.8H29.982l-1.678,7.2H12.788Zm4.556,13.2a3,3,0,1,0,3,3A3.014,3.014,0,0,0,15.816,980.362Zm9,0a3,3,0,1,0,3,3A3.014,3.014,0,0,0,24.816,980.362Zm-9,1.8a1.2,1.2,0,1,1-1.2,1.2A1.187,1.187,0,0,1,15.816,982.162Zm9,0a1.2,1.2,0,1,1-1.2,1.2A1.187,1.187,0,0,1,24.816,982.162Z"/></g></svg>