<svg xmlns="http://www.w3.org/2000/svg" width="50" height="16" viewBox="0 0 50 16"><defs><style>.a{fill:#fda700;}</style></defs><g transform="translate(-81.166 -105.048)"><path class="a" d="M437.557,126.215h-4.05l2.533-15.488h4.05Z" transform="translate(-334.725 -5.398)"/><path class="a" d="M577.328,105.707a10.081,10.081,0,0,0-3.633-.659c-4,0-6.816,2.109-6.834,5.124-.033,2.225,2.017,3.46,3.55,4.2,1.567.758,2.1,1.253,2.1,1.928-.016,1.038-1.266,1.516-2.432,1.516a8.137,8.137,0,0,1-3.8-.824l-.533-.247-.567,3.477a12.45,12.45,0,0,0,4.517.824c4.25,0,7.017-2.076,7.049-5.289.016-1.763-1.066-3.114-3.4-4.218-1.417-.709-2.284-1.187-2.284-1.912.017-.659.734-1.334,2.333-1.334a6.948,6.948,0,0,1,3.017.593l.366.164.551-3.345Z" transform="translate(-459.813)"/><path class="a" d="M796.788,120.728c.333-.89,1.617-4.334,1.617-4.334-.017.033.333-.906.533-1.483l.283,1.335s.767,3.707.934,4.482Zm5-10h-3.133a2,2,0,0,0-2.117,1.285l-6.016,14.2h4.25l.85-2.323h5.2c.116.544.483,2.323.483,2.323h3.75l-3.268-15.488Z" transform="translate(-673.89 -5.398)"/><path class="a" d="M175.835,110.727l-3.967,10.562-.433-2.142a11.891,11.891,0,0,0-5.6-6.492l3.633,13.545h4.283l6.366-15.472Z" transform="translate(-80.437 -5.398)"/><path class="a" d="M87.749,110.727H81.232l-.067.313c5.083,1.285,8.45,4.383,9.833,8.107l-1.417-7.118a1.674,1.674,0,0,0-1.833-1.3Z" transform="translate(0 -5.398)"/></g></svg>