<svg xmlns="http://www.w3.org/2000/svg" width="40" height="40" viewBox="0 0 40 40"><defs><style>.a{fill:#6730d5;}</style></defs><g transform="translate(-2.106 -25.276)"><g transform="translate(2.106 25.276)"><g transform="translate(0 11.494)"><path class="a" d="M771.516,305H764.3a1.25,1.25,0,0,0-1.233,1.233v12.75c0,.588-.012,1.179,0,1.767v.025a1.25,1.25,0,0,0,1.233,1.233h7.212a1.233,1.233,0,1,0,0-2.465H764.3l1.233,1.233V308.024c0-.588.016-1.179,0-1.767v-.025l-1.233,1.233h7.212a1.233,1.233,0,1,0,0-2.465Z" transform="translate(-732.75 -305)"/><path class="a" d="M26.51,322.108h7.211a1.25,1.25,0,0,0,1.233-1.233V308.124c0-.588.012-1.179,0-1.767v-.025a1.25,1.25,0,0,0-1.233-1.233H26.51a1.233,1.233,0,1,0,0,2.465h7.211l-1.233-1.233v12.75c0,.588-.016,1.179,0,1.767v.025l1.233-1.233H26.51a1.233,1.233,0,1,0,0,2.465Z" transform="translate(-25.276 -305.096)"/></g><g transform="translate(11.494 0)"><path class="a" d="M305,26.51v7.211a1.25,1.25,0,0,0,1.233,1.233h12.75c.588,0,1.179.012,1.767,0h.025a1.25,1.25,0,0,0,1.233-1.233V26.51a1.233,1.233,0,1,0-2.465,0v7.211l1.233-1.233H308.024c-.588,0-1.179-.016-1.767,0h-.025l1.233,1.233V26.51a1.233,1.233,0,1,0-2.465,0Z" transform="translate(-305 -25.276)"/><path class="a" d="M322.108,771.516V764.3a1.25,1.25,0,0,0-1.233-1.233H308.124c-.588,0-1.179-.012-1.767,0h-.025A1.25,1.25,0,0,0,305.1,764.3v7.212a1.233,1.233,0,1,0,2.465,0V764.3l-1.233,1.233h12.75c.588,0,1.179.016,1.767,0h.025l-1.233-1.233v7.212a1.233,1.233,0,1,0,2.465,0Z" transform="translate(-305.096 -732.75)"/></g><g transform="translate(7.212 7.215)"><path class="a" d="M200.8,203.643v19.991a2.843,2.843,0,0,0,1.34,2.387,3.256,3.256,0,0,0,1.812.411h19.226a3.71,3.71,0,0,0,1.677-.308,2.816,2.816,0,0,0,1.529-2.486V206.027c0-.793.012-1.582,0-2.375a2.834,2.834,0,0,0-2.843-2.794H206.491c-.945,0-1.89,0-2.839,0a2.827,2.827,0,0,0-2.856,2.786,1.233,1.233,0,0,0,2.465,0,2.092,2.092,0,0,1,.016-.226c-.016.111-.029.218-.045.329a1.647,1.647,0,0,1,.1-.37l-.123.3a1.633,1.633,0,0,1,.123-.238c.074-.119.148-.111-.066.078.033-.029.058-.066.09-.1a.937.937,0,0,1,.1-.09c.008.008-.3.2-.1.082.086-.049.168-.1.259-.14l-.3.123a1.647,1.647,0,0,1,.37-.1c-.111.016-.218.029-.329.045a5.911,5.911,0,0,1,.715-.016h17.1c.793,0,1.59-.008,2.383,0a1.656,1.656,0,0,1,.247.016c-.111-.016-.218-.029-.329-.045a1.647,1.647,0,0,1,.37.1l-.3-.123a1.633,1.633,0,0,1,.238.123c.119.074.111.148-.078-.066.029.033.066.058.1.09a.937.937,0,0,1,.09.1c-.008.008-.2-.3-.082-.1.049.086.1.168.14.259l-.123-.3a1.647,1.647,0,0,1,.1.37c-.016-.111-.029-.218-.045-.329a5.912,5.912,0,0,1,.016.715v17.1c0,.793.008,1.59,0,2.383a1.657,1.657,0,0,1-.016.247c.016-.111.029-.218.045-.329a1.646,1.646,0,0,1-.1.37l.123-.3a1.63,1.63,0,0,1-.123.238c-.074.119-.148.111.066-.078-.033.029-.058.066-.09.1a.94.94,0,0,1-.1.09c-.008-.008.3-.2.1-.082-.086.049-.168.1-.259.14l.3-.123a1.647,1.647,0,0,1-.37.1c.111-.016.218-.029.329-.045a5.918,5.918,0,0,1-.715.016h-17.1c-.793,0-1.59.008-2.383,0a1.656,1.656,0,0,1-.247-.016c.111.016.218.029.329.045a1.647,1.647,0,0,1-.37-.1l.3.123a1.633,1.633,0,0,1-.238-.123c-.119-.074-.111-.148.078.066-.029-.033-.066-.058-.1-.09a.944.944,0,0,1-.09-.1c.008-.008.2.3.082.1-.049-.086-.1-.168-.14-.259l.123.3a1.646,1.646,0,0,1-.1-.37c.016.111.029.218.045.329a5.918,5.918,0,0,1-.016-.715V206.129c0-.818.016-1.635,0-2.453v-.037a1.247,1.247,0,0,0-1.233-1.233A1.262,1.262,0,0,0,200.8,203.643Z" transform="translate(-200.795 -200.856)"/><path class="a" d="M370.112,370.219h-6.1a7.89,7.89,0,0,1-.986-.016c.111.016.218.029.329.045a1.651,1.651,0,0,1-.37-.1l.3.123a1.637,1.637,0,0,1-.238-.123c-.119-.074-.111-.148.078.066-.029-.033-.066-.058-.1-.09a.939.939,0,0,1-.09-.1c.008-.008.2.3.082.1-.049-.086-.1-.168-.14-.259l.123.3a1.65,1.65,0,0,1-.1-.37c.016.111.029.218.045.329a6.467,6.467,0,0,1-.016-.846v-5.457a8.371,8.371,0,0,1,.016-1.015c-.016.111-.029.218-.045.329a1.648,1.648,0,0,1,.1-.37l-.123.3a1.631,1.631,0,0,1,.123-.238c.074-.119.148-.111-.066.078.033-.029.057-.066.09-.1a.94.94,0,0,1,.1-.09c.008.008-.3.2-.1.082.086-.049.169-.1.259-.14l-.3.123a1.645,1.645,0,0,1,.37-.1c-.111.016-.218.029-.329.045a6.467,6.467,0,0,1,.846-.016h5.457a8.37,8.37,0,0,1,1.015.016c-.111-.016-.218-.029-.329-.045a1.644,1.644,0,0,1,.37.1l-.3-.123a1.632,1.632,0,0,1,.238.123c.119.074.111.148-.078-.066.029.033.066.057.1.09a.948.948,0,0,1,.09.1c-.008.008-.2-.3-.082-.1.049.086.1.168.14.259l-.123-.3a1.644,1.644,0,0,1,.1.37c-.016-.111-.029-.218-.045-.329a6.468,6.468,0,0,1,.016.846V369.1a8.371,8.371,0,0,1-.016,1.015c.016-.111.029-.218.045-.329a1.646,1.646,0,0,1-.1.37l.123-.3a1.634,1.634,0,0,1-.123.238c-.074.119-.148.111.066-.078-.033.029-.058.066-.09.1a.934.934,0,0,1-.1.09c-.008-.008.3-.2.1-.082-.086.049-.168.1-.259.14l.3-.123a1.648,1.648,0,0,1-.37.1c.111-.016.218-.029.329-.045a1.445,1.445,0,0,1-.23.016,1.233,1.233,0,1,0,0,2.465,2.836,2.836,0,0,0,2.794-2.815c0-.394,0-.789,0-1.187V364.2c0-.386,0-.773,0-1.159a2.838,2.838,0,0,0-2.794-2.811c-1.056-.016-2.112,0-3.164,0-1.212,0-2.42,0-3.632,0a2.829,2.829,0,0,0-2.786,2.157,7.039,7.039,0,0,0-.074,1.409v5.95a3.357,3.357,0,0,0,.095.859,2.745,2.745,0,0,0,1.459,1.779,3.127,3.127,0,0,0,1.323.3h6.784a1.231,1.231,0,1,0,0-2.461Z" transform="translate(-353.894 -353.674)"/></g><g transform="translate(18.767 30.321)"><g transform="translate(0 0)"><path class="a" d="M484.465,769.978V764.41a1.233,1.233,0,1,0-2.465,0v5.568a1.233,1.233,0,0,0,2.465,0Z" transform="translate(-482 -763.176)"/></g></g><g transform="translate(18.767 1.644)"><path class="a" d="M484.465,72.078V66.51a1.233,1.233,0,1,0-2.465,0v5.568a1.233,1.233,0,0,0,2.465,0Z" transform="translate(-482 -65.276)"/></g><g transform="translate(30.321 18.767)"><g transform="translate(0 0)"><path class="a" d="M769.978,482H764.41a1.233,1.233,0,1,0,0,2.465h5.568a1.233,1.233,0,0,0,0-2.465Z" transform="translate(-763.176 -482)"/></g></g><g transform="translate(1.644 18.767)"><g transform="translate(0 0)"><path class="a" d="M72.078,482H66.51a1.233,1.233,0,0,0,0,2.465h5.568a1.233,1.233,0,0,0,0-2.465Z" transform="translate(-65.276 -482)"/></g></g></g></g></svg>