<svg xmlns="http://www.w3.org/2000/svg" width="30.164" height="19.56" viewBox="0 0 30.164 19.56"><defs><style>.a{opacity:0.8;}</style></defs><g class="a" transform="translate(-2.018 -18.887)"><path d="M22.738,22.544a2.085,2.085,0,0,0,2.011-1.73,1.625,1.625,0,0,0-1.629-1.927,2.086,2.086,0,0,0-2.012,1.73,1.626,1.626,0,0,0,1.63,1.927Zm-.389-1.73a.835.835,0,0,1,.769-.67.4.4,0,0,1,.311.127.416.416,0,0,1,.077.346.834.834,0,0,1-.769.67.4.4,0,0,1-.311-.127A.417.417,0,0,1,22.349,20.814ZM10.684,33.722a.628.628,0,0,0,.621.727H30.652a.63.63,0,0,0,.621-.53c.519-3.261-.124-6.144-1.809-8.119a8.68,8.68,0,0,0-6.871-2.757,11.243,11.243,0,0,0-6.284,1.895c-.014,0-.028,0-.042,0H8.226a.629.629,0,1,0,0,1.257h6.5q-.43.4-.819.838H2.647a.629.629,0,1,0,0,1.257H12.914a13.7,13.7,0,0,0-.919,1.519H4.533a.629.629,0,1,0,0,1.257h6.889A12.69,12.69,0,0,0,10.684,33.722ZM22.594,24.3a7.376,7.376,0,0,1,5.915,2.316,8.561,8.561,0,0,1,1.6,6.575H12.068C13.087,28.756,16.967,24.3,22.594,24.3Zm-2.381,1.45a8.979,8.979,0,0,0-5.525,4.976.628.628,0,0,0,.352.816.61.61,0,0,0,.232.045.629.629,0,0,0,.584-.4A7.8,7.8,0,0,1,20.6,26.947a.629.629,0,0,0-.39-1.2Zm11.6,9.968a1.466,1.466,0,0,0-1.111-.48H10.4a1.816,1.816,0,0,0-1.751,1.5,1.483,1.483,0,0,0,.324,1.2,1.441,1.441,0,0,0,1.117.5H30.416a1.822,1.822,0,0,0,1.755-1.532A1.508,1.508,0,0,0,31.813,35.72Zm-1.4,1.469H10.095a.2.2,0,0,1-.161-.059.231.231,0,0,1-.039-.188.562.562,0,0,1,.51-.445H30.7a.233.233,0,0,1,.174.06.251.251,0,0,1,.05.187A.561.561,0,0,1,30.416,37.189Z"/></g></svg>