<svg xmlns="http://www.w3.org/2000/svg" width="20.413" height="24" viewBox="0 0 20.413 24"><defs><style>.a{opacity:0.8;}</style></defs><g class="a" transform="translate(-9.6 -2.5)"><g transform="translate(9.6 2.5)"><path d="M30.013,16.673a2.005,2.005,0,0,0-2.021-2,1.869,1.869,0,0,0-.909.227,1.976,1.976,0,0,0-1.743-1.011,1.869,1.869,0,0,0-.909.227,1.976,1.976,0,0,0-1.743-1.011,1.884,1.884,0,0,0-.657.1V12.049h1.516a2.178,2.178,0,0,0,2.173-2.2V4.7a2.194,2.194,0,0,0-2.173-2.2H11.773A2.178,2.178,0,0,0,9.6,4.7V9.826a2.194,2.194,0,0,0,2.173,2.2h6.215v6.013l-.834-.834a2.062,2.062,0,0,0-2.577-.253,2.129,2.129,0,0,0-.884,1.389,2.051,2.051,0,0,0,.455,1.592l3.638,4.4a5.935,5.935,0,0,0,4.6,2.173h2.274a5.348,5.348,0,0,0,5.331-5.331Zm-5.305,8.463H22.434a4.608,4.608,0,0,1-3.562-1.667l-3.638-4.4a.666.666,0,0,1-.152-.531.62.62,0,0,1,.278-.455.681.681,0,0,1,.379-.126.69.69,0,0,1,.48.2l1.465,1.465a1.006,1.006,0,0,0,1.086.2.96.96,0,0,0,.606-.909V9.473a.669.669,0,0,1,.657-.657.693.693,0,0,1,.657.657v6.493a.682.682,0,0,0,1.364,0v-.884a.657.657,0,1,1,1.314,0v1.693a.682.682,0,1,0,1.364,0v-.884a.657.657,0,0,1,1.314,0v1.693a.682.682,0,1,0,1.364,0V16.7a.657.657,0,0,1,1.314,0v4.5A3.916,3.916,0,0,1,27.562,24,4.258,4.258,0,0,1,24.707,25.136ZM11.773,10.508a.658.658,0,0,1-.657-.682V4.7a.674.674,0,0,1,.657-.682H23.52a.658.658,0,0,1,.657.682V9.826a.674.674,0,0,1-.657.682H22V9.5a2,2,0,1,0-3.992.025v1.011h-6.24Z" transform="translate(-9.6 -2.5)"/><path d="M26.474,14.874l-1.389,1.491-.48-.531a.679.679,0,1,0-.985.935L24.6,17.83a.675.675,0,0,0,1.011,0l1.895-2.021a.678.678,0,0,0-.025-.96A.741.741,0,0,0,26.474,14.874Z" transform="translate(-19.931 -11.59)"/></g></g></svg>