<svg xmlns="http://www.w3.org/2000/svg" width="15.771" height="24" viewBox="0 0 15.771 24"><defs><style>.a{opacity:0.8;}</style></defs><g class="a" transform="translate(-27 -15)"><g transform="translate(27 15)"><path d="M27,34.886A4.126,4.126,0,0,0,31.114,39h.343a.7.7,0,0,0,.686-.617,2.4,2.4,0,0,1,2.434-2.194,2.427,2.427,0,0,1,2.434,2.194A.7.7,0,0,0,37.7,39h.96a4.126,4.126,0,0,0,4.114-4.114V19.114A4.126,4.126,0,0,0,38.657,15h-.686a.7.7,0,0,0-.686.549,2.461,2.461,0,0,1-2.4,1.989,2.427,2.427,0,0,1-2.4-1.989A.7.7,0,0,0,31.8,15h-.686A4.126,4.126,0,0,0,27,19.114Zm11.657,2.743h-.343a3.838,3.838,0,0,0-7.406-.034,2.762,2.762,0,0,1-2.537-2.743V23.914H41.4V34.886A2.751,2.751,0,0,1,38.657,37.629ZM31.114,16.371h.171a3.823,3.823,0,0,0,7.2,0h.171A2.751,2.751,0,0,1,41.4,19.114v3.429H28.371V19.114A2.751,2.751,0,0,1,31.114,16.371Z" transform="translate(-27 -15)"/><path d="M42.686,52.371H46.8A.686.686,0,1,0,46.8,51H42.686a.686.686,0,0,0,0,1.371Z" transform="translate(-36.857 -38.657)"/><path d="M44.571,61H36.686a.686.686,0,0,0,0,1.371h7.886a.686.686,0,1,0,0-1.371Z" transform="translate(-32.914 -45.229)"/></g></g></svg>