<svg xmlns="http://www.w3.org/2000/svg" width="25.889" height="16" viewBox="0 0 25.889 16"><defs><style>.a{fill:#52bdeb;}.b{fill:#1eaae6;}.c{fill:#b1dff2;}</style></defs><g transform="translate(-1551.785 -2007.046)"><g transform="translate(1551.785 2007.046)"><g transform="translate(0 0)"><rect class="a" width="7" height="12.578" transform="translate(9.444 1.711)"/><path class="b" d="M2908.623,2247.5a8.021,8.021,0,0,1,3.044-6.289,8,8,0,1,0,0,12.578A7.989,7.989,0,0,1,2908.623,2247.5Z" transform="translate(-2898.734 -2239.502)"/><path class="c" d="M3412.1,2247.5a7.992,7.992,0,0,1-12.933,6.289,8.018,8.018,0,0,0,0-12.578,7.992,7.992,0,0,1,12.933,6.289Z" transform="translate(-3386.212 -2239.502)"/></g></g></g></svg>