<svg xmlns="http://www.w3.org/2000/svg" width="35.242" height="24" viewBox="0 0 35.242 24"><defs><style>.a{opacity:0.6;}.b{fill:#23aa6f;}</style></defs><g class="a" transform="translate(-5 -12.98)"><path class="b" d="M14.589,30.56a2.547,2.547,0,0,0-1.367.409,2.58,2.58,0,1,0,0,4.342,2.574,2.574,0,1,0,1.367-4.751ZM10.67,33.147a1.17,1.17,0,1,1,1.17,1.17A1.172,1.172,0,0,1,10.67,33.147Zm3.919,1.17a1.148,1.148,0,0,1-.416-.078,2.566,2.566,0,0,0,.254-1.093,2.466,2.466,0,0,0-.254-1.093,1.216,1.216,0,0,1,.416-.085,1.174,1.174,0,0,1,0,2.347Z" transform="translate(-1.257 -5.189)"/><path class="b" d="M35.95,27.049V15.63a2.65,2.65,0,0,0-2.643-2.65H7.65A2.646,2.646,0,0,0,5,15.623V30.044a2.656,2.656,0,0,0,2.65,2.65H30.311a4.991,4.991,0,1,0,5.639-5.646Zm-1.41-6.534H6.41v-1.9H34.54ZM7.65,14.383H33.307a1.236,1.236,0,0,1,1.233,1.241V17.2H6.41V15.623A1.242,1.242,0,0,1,7.65,14.383ZM6.41,30.044v-8.12H34.54v5.131a4.994,4.994,0,0,0-4.229,4.229H7.65A1.242,1.242,0,0,1,6.41,30.044ZM35.252,35.57a3.586,3.586,0,0,1-3.581-3.581v-.014a3.581,3.581,0,1,1,3.581,3.595Z" transform="translate(0 0)"/><path class="b" d="M48.229,37.314l-2.1,2.1-.691-.7a.7.7,0,0,0-.994.994L45.635,40.9a.7.7,0,0,0,.5.2.728.728,0,0,0,.5-.2l2.594-2.594a.7.7,0,0,0,0-.994A.71.71,0,0,0,48.229,37.314Z" transform="translate(-11.581 -7.121)"/></g></svg>